<?xml version="1.0" encoding="UTF-8"?>
<svg version="1.1" xmlns="http://www.w3.org/2000/svg" width="88" height="100">
<path d="M0 0 C1.08434326 0.62165039 2.16868652 1.24330078 3.28588867 1.88378906 C4.17337044 2.39090424 4.17337044 2.39090424 5.07878113 2.90826416 C6.32483105 3.62181666 7.56938491 4.33798741 8.8125 5.05664062 C10.68473176 6.13836379 12.56197107 7.21093225 14.44018555 8.28222656 C31.61426657 18.12232321 31.61426657 18.12232321 34.89135742 21.39941406 C35.03633532 22.86462146 35.11399917 24.33657781 35.16357422 25.80810547 C35.1957756 26.74643219 35.22797699 27.68475891 35.26115417 28.65151978 C35.37173077 32.96678984 35.45425733 37.28190451 35.51611328 41.59814453 C35.55775425 43.8720331 35.61910323 46.14565087 35.70068359 48.41845703 C36.36566846 67.24369876 36.36566846 67.24369876 32.88671875 72.33056641 C30.27441728 74.18812544 27.89596425 75.30747662 24.89135742 76.39941406 C23.56125867 77.15443199 22.24315171 77.93124969 20.94213867 78.73535156 C19.69901583 79.42045763 18.45287715 80.10011855 17.20385742 80.77441406 C12.97757606 83.08361934 8.80187237 85.42009898 4.73901367 88.00878906 C4.071521 88.4298291 3.40402832 88.85086914 2.71630859 89.28466797 C1.4484211 90.09076947 0.1888425 90.91014433 -1.06054688 91.74462891 C-3.88803976 93.5287884 -5.76033093 94.40211415 -9.13208008 94.37597656 C-12.61600227 93.23295747 -15.54051695 91.61016278 -18.60864258 89.64941406 C-19.91377205 88.83943276 -21.21982414 88.0309369 -22.52661133 87.22363281 C-23.24381348 86.77810059 -23.96101563 86.33256836 -24.69995117 85.87353516 C-30.36790524 82.40474267 -36.13005505 79.08943232 -41.87036133 75.7421875 C-43.23547852 74.94022949 -43.23547852 74.94022949 -44.62817383 74.12207031 C-45.44390869 73.64519775 -46.25964355 73.1683252 -47.10009766 72.67700195 C-49.10864258 71.39941406 -49.10864258 71.39941406 -51.10864258 69.39941406 C-51.38279724 67.36355591 -51.38279724 67.36355591 -51.41503906 64.82958984 C-51.43102646 63.88165558 -51.44701385 62.93372131 -51.46348572 61.95706177 C-51.46884842 60.92999115 -51.47421112 59.90292053 -51.47973633 58.84472656 C-51.4887648 57.791633 -51.49779327 56.73853943 -51.50709534 55.65353394 C-51.52162257 53.42253473 -51.53049069 51.19149267 -51.53417969 48.96044922 C-51.54607145 45.5448428 -51.59523088 42.13104488 -51.64575195 38.71582031 C-51.65521618 36.55046457 -51.66245122 34.3850977 -51.66723633 32.21972656 C-51.68676865 31.19670441 -51.70630096 30.17368225 -51.72642517 29.11965942 C-51.68141731 22.05316482 -51.68141731 22.05316482 -48.96728516 18.95532227 C-48.02393311 18.44187256 -47.08058105 17.92842285 -46.10864258 17.39941406 C-45.12025391 16.79105713 -44.13186523 16.1827002 -43.11352539 15.5559082 C-42.02394531 14.9383667 -40.93436523 14.3208252 -39.81176758 13.68457031 C-39.21869812 13.34695175 -38.62562866 13.00933319 -38.0145874 12.66148376 C-36.1315596 11.59087065 -34.24516784 10.52634966 -32.35864258 9.46191406 C-30.49234188 8.40219794 -28.62670212 7.34132512 -26.7611084 6.28036499 C-25.55238125 5.59574986 -24.3417022 4.91456864 -23.12902832 4.23696899 C-20.52282597 2.78070295 -17.95109015 1.3003852 -15.4230957 -0.28857422 C-14.65416992 -0.76407715 -13.88524414 -1.23958008 -13.09301758 -1.72949219 C-12.45589844 -2.14400635 -11.8187793 -2.55852051 -11.16235352 -2.9855957 C-7.08039124 -4.20795221 -3.59531516 -1.85116517 0 0 Z " fill="#212D2E" transform="translate(52.108642578125,4.6005859375)"/>
<path d="M0 0 C15.3275996 -1.38255631 15.3275996 -1.38255631 19.25390625 1.86328125 C20.6875 4.25 20.6875 4.25 21.875 6.734375 C23.57680648 10.16162415 25.6752212 11.22678464 29 13 C35.07543566 15.02514522 42.45235531 15.10046489 48.375 12.5 C53.25707207 9.6665636 56.50874797 4.98250406 59 0 C64.94 0 70.88 0 77 0 C77 4.95 77 9.9 77 15 C74.39351562 16.50240234 74.39351562 16.50240234 71.734375 18.03515625 C70.00649792 19.03147247 68.2786222 20.02779105 66.55078125 21.02416992 C64.79959985 22.03390074 63.04824002 23.04332207 61.296875 24.05273438 C60.1625 24.70693359 59.028125 25.36113281 57.859375 26.03515625 C56.14911133 27.01186279 56.14911133 27.01186279 54.40429688 28.00830078 C52.133851 29.33663537 49.88950217 30.71060776 47.67382812 32.12841797 C46.63162109 32.78600098 45.58941406 33.44358398 44.515625 34.12109375 C43.59555664 34.72236084 42.67548828 35.32362793 41.72753906 35.94311523 C39 37 39 37 36.01611328 36.38623047 C32.95445609 34.97906764 30.10665268 33.4484804 27.2265625 31.69921875 C26.1540625 31.05146484 25.0815625 30.40371094 23.9765625 29.73632812 C22.87054687 29.06021484 21.76453125 28.38410156 20.625 27.6875 C19.52671875 27.02298828 18.4284375 26.35847656 17.296875 25.67382812 C15.15986087 24.37855157 13.02905671 23.07296165 10.90527344 21.75610352 C9.1176966 20.67559594 7.30166184 19.63888039 5.44628906 18.67944336 C3.38244406 17.58236847 1.67595104 16.62855222 0 15 C-0.6437893 11.89371665 -0.8003832 10.20577352 -0.5 7.1875 C-0.46390625 6.49462891 -0.4278125 5.80175781 -0.390625 5.08789062 C-0.29692174 3.38951898 -0.15342081 1.69402143 0 0 Z " fill="#FAC32A" transform="translate(6,57)"/>
<path d="M0 0 C0.82814209 0.45221924 1.65628418 0.90443848 2.50952148 1.37036133 C3.40179443 1.83796875 4.29406738 2.30557617 5.21337891 2.78735352 C6.17091064 3.32521484 7.12844238 3.86307617 8.11499023 4.41723633 C9.18168945 5.01536133 10.24838867 5.61348633 11.34741211 6.22973633 C12.4527832 6.85364258 13.5581543 7.47754883 14.69702148 8.12036133 C15.78305664 8.72879883 16.8690918 9.33723633 17.98803711 9.96411133 C20.13948465 11.17357373 22.28482211 12.39397616 24.42358398 13.62573242 C26.42878139 14.75936697 28.45986691 15.84877386 30.51733398 16.88452148 C33.07811253 18.2298383 35.32277531 19.47664794 37.50952148 21.37036133 C38.37249661 24.78774281 38.54268631 25.97932031 38.13452148 29.24536133 C37.92827148 31.59661133 37.72202148 33.94786133 37.50952148 36.37036133 C31.56952148 36.37036133 25.62952148 36.37036133 19.50952148 36.37036133 C18.18952148 34.06036133 16.86952148 31.75036133 15.50952148 29.37036133 C11.54317009 24.99583954 7.21875775 21.78249869 1.25952148 21.12036133 C-4.86000838 20.82184768 -9.53065175 21.67098641 -14.49047852 25.37036133 C-17.95082651 28.70329341 -20.95734622 31.77096445 -22.49047852 36.37036133 C-28.43047852 36.37036133 -34.37047852 36.37036133 -40.49047852 36.37036133 C-40.49047852 31.42036133 -40.49047852 26.47036133 -40.49047852 21.37036133 C-38.75282227 20.36875977 -37.01516602 19.3671582 -35.22485352 18.33520508 C-33.49697644 17.33888886 -31.76910072 16.34257028 -30.04125977 15.34619141 C-28.29007837 14.33646059 -26.53871853 13.32703926 -24.78735352 12.31762695 C-23.65297852 11.66342773 -22.51860352 11.00922852 -21.34985352 10.33520508 C-20.2109668 9.68406738 -19.07208008 9.03292969 -17.89868164 8.36206055 C-15.61797662 7.02925313 -13.36094193 5.65513036 -11.12915039 4.24194336 C-10.07791992 3.58436035 -9.02668945 2.92677734 -7.94360352 2.24926758 C-7.01193359 1.64800049 -6.08026367 1.0467334 -5.12036133 0.42724609 C-2.49047852 -0.62963867 -2.49047852 -0.62963867 0 0 Z " fill="#F2483D" transform="translate(45.490478515625,6.629638671875)"/>
<path d="M0 0 C5.64358115 1.89492506 9.18096398 5.82161215 12.08203125 10.890625 C13.94468477 15.17076501 13.66723544 19.76256378 12.34765625 24.1875 C10.10797089 29.2628385 6.94107671 32.47528317 2 35 C-3.26363483 36.59133146 -8.05173937 36.67739243 -13.125 34.4375 C-17.7852464 31.89472478 -21.04558972 28.12800271 -22.60546875 23.015625 C-23.68461445 17.50236578 -23.68908821 13.58338959 -20.8125 8.75 C-15.20756753 0.64514026 -9.47309317 -0.94207556 0 0 Z " fill="#EDE7D9" transform="translate(49,32)"/>
<path d="M0 0 C0.66 0 1.32 0 2 0 C2.25424062 6.70693667 2.42894142 13.4126265 2.54931641 20.12329102 C2.59950674 22.4040367 2.66767853 24.68446217 2.75439453 26.96411133 C2.87619021 30.2490123 2.93250227 33.52965427 2.9765625 36.81640625 C3.02817535 37.83021866 3.07978821 38.84403107 3.13296509 39.88856506 C3.13533382 42.90068857 3.00952412 45.15711658 2 48 C-0.99698659 51.000891 -4.2804252 53.0016848 -8 55 C-9.0725 55.639375 -10.145 56.27875 -11.25 56.9375 C-14.34414018 58.13296325 -16.71049071 58.23496495 -20 58 C-18.52922378 53.46510665 -14.94703573 51.88995913 -11 49.75 C-10.35804687 49.38648438 -9.71609375 49.02296875 -9.0546875 48.6484375 C-4.29546523 46 -4.29546523 46 -2 46 C-2 40.72 -2 35.44 -2 30 C-5.12505696 29.97311136 -8.24988425 29.95321538 -11.375 29.9375 C-12.26445313 29.92912109 -13.15390625 29.92074219 -14.0703125 29.91210938 C-14.92109375 29.90888672 -15.771875 29.90566406 -16.6484375 29.90234375 C-17.43395996 29.89710693 -18.21948242 29.89187012 -19.02880859 29.88647461 C-21.07772668 29.87426047 -21.07772668 29.87426047 -23 31 C-23.02699725 28.72923158 -23.04639453 26.45837179 -23.0625 24.1875 C-23.07990234 22.29064453 -23.07990234 22.29064453 -23.09765625 20.35546875 C-23 17 -23 17 -22 14 C-21.34 14 -20.68 14 -20 14 C-20 14.99 -20 15.98 -20 17 C-14.06 17 -8.12 17 -2 17 C-2 12.05 -2 7.1 -2 2 C-1.34 2 -0.68 2 0 2 C0 1.34 0 0.68 0 0 Z " fill="#1B292B" transform="translate(85,26)"/>
<path d="M0 0 C3.42736319 1.33997559 6.47713548 2.9346545 9.66918945 4.76464844 C10.55667122 5.27176361 10.55667122 5.27176361 11.46208191 5.78912354 C12.70813183 6.50267603 13.95268569 7.21884679 15.19580078 7.9375 C17.06803254 9.01922316 18.94527185 10.09179163 20.82348633 11.16308594 C27.4677324 14.97036274 33.98399947 18.90470812 40.2746582 23.28027344 C39.7796582 24.76527344 39.7796582 24.76527344 39.2746582 26.28027344 C35.2029274 25.68234636 32.23880141 24.35568693 28.66918945 22.33105469 C27.60249023 21.72970703 26.53579102 21.12835937 25.43676758 20.50878906 C24.33139648 19.87650391 23.22602539 19.24421875 22.0871582 18.59277344 C20.45810547 17.67334961 20.45810547 17.67334961 18.79614258 16.73535156 C9.98932579 11.74746674 9.98932579 11.74746674 6.4206543 9.41455078 C5.55134277 8.84816895 4.68203125 8.28178711 3.78637695 7.69824219 C3.03187256 7.18414795 2.27736816 6.67005371 1.5 6.14038086 C-0.74817196 5.01647134 -0.74817196 5.01647134 -3.23950195 5.98242188 C-6.64885266 7.7615416 -6.64885266 7.7615416 -10.01049805 9.62792969 C-10.78844727 10.06814453 -11.56639648 10.50835937 -12.36791992 10.96191406 C-13.98582991 11.88512824 -15.60301427 12.80961518 -17.21948242 13.73535156 C-17.99614258 14.17427734 -18.77280273 14.61320312 -19.57299805 15.06542969 C-20.27432861 15.46640869 -20.97565918 15.8673877 -21.69824219 16.28051758 C-25.73490165 18.27137877 -28.36263485 18.37095017 -32.7253418 17.28027344 C-29.39208065 14.5017393 -26.06127109 12.1987192 -22.27612305 10.08105469 C-21.26356445 9.51193359 -20.25100586 8.9428125 -19.20776367 8.35644531 C-17.63865234 7.48342773 -17.63865234 7.48342773 -16.0378418 6.59277344 C-14.98016602 5.99916016 -13.92249023 5.40554687 -12.83276367 4.79394531 C-2.90771278 -0.76788832 -2.90771278 -0.76788832 0 0 Z " fill="#2C3638" transform="translate(45.725341796875,1.7197265625)"/>
<path d="M0 0 C5.57383984 1.87150827 9.3966648 5.79332959 12 11 C12.039992 12.99960012 12.04346799 15.00047242 12 17 C8.53290866 15.26645433 6.37368413 13.36977765 4 10.375 C1.95535747 7.85892434 1.29831095 7.09727531 -1.875 6.0625 C-2.926875 6.0315625 -2.926875 6.0315625 -4 6 C-4.16435547 6.81791016 -4.16435547 6.81791016 -4.33203125 7.65234375 C-5.51009937 13.25535065 -7.087035 18.6054387 -9 24 C-9.33 23.34 -9.66 22.68 -10 22 C-12.01669827 20.86649466 -12.01669827 20.86649466 -14 20 C-14 16 -14 16 -12 14 C-12 13.01 -12 12.02 -12 11 C-14.56490126 12.0992434 -16.12843192 13.12843192 -18.125 15.125 C-18.74375 15.74375 -19.3625 16.3625 -20 17 C-20.66 17 -21.32 17 -22 17 C-22.50657287 11.68098483 -21.32610043 9.13515188 -18 5 C-12.08290425 -0.21267959 -7.77714643 -0.77341788 0 0 Z " fill="#F3ECDD" transform="translate(49,32)"/>
<path d="M0 0 C4.17139119 0.68297337 7.57929879 2.86245549 11.1875 4.9375 C11.88149902 5.32848877 12.57549805 5.71947754 13.29052734 6.12231445 C17.12337383 8.29517562 20.89347086 10.54164716 24.62109375 12.890625 C25.37430908 13.35734619 26.12752441 13.82406738 26.90356445 14.30493164 C28.35969268 15.21119102 29.80544054 16.13439518 31.23901367 17.07592773 C35.31887554 19.61372355 35.31887554 19.61372355 40.0234375 19.56640625 C44.34562753 17.29186793 48.40553523 14.68439103 52.43359375 11.92578125 C57.25196181 8.84163155 57.25196181 8.84163155 61.46875 9.734375 C62.72171875 10.36085938 62.72171875 10.36085938 64 11 C59.51478984 14.84315554 54.62827875 17.81359018 49.5625 20.8125 C48.72912109 21.32748047 47.89574219 21.84246094 47.03710938 22.37304688 C40.92380256 25.98303912 40.92380256 25.98303912 36.80859375 26.05859375 C33.45522381 24.79466711 30.50624312 23.1708994 27.5 21.25 C26.1973994 20.44274265 24.8939565 19.63684346 23.58984375 18.83203125 C22.51452393 18.16421631 22.51452393 18.16421631 21.41748047 17.48291016 C16.67044554 14.57102466 11.86144616 11.76268605 7.0625 8.9375 C5.13663915 7.80091611 3.21085152 6.66420815 1.28515625 5.52734375 C-0.1431865 4.68482349 -1.57155462 3.84234624 -3 3 C-2.01 2.67 -1.02 2.34 0 2 C0 1.34 0 0.68 0 0 Z " fill="#243132" transform="translate(6,73)"/>
<path d="M0 0 C0.81984375 0.42667969 1.6396875 0.85335937 2.484375 1.29296875 C-2.00083516 5.13612429 -6.88734625 8.10655893 -11.953125 11.10546875 C-12.78650391 11.62044922 -13.61988281 12.13542969 -14.47851562 12.66601562 C-20.61530537 16.28987487 -20.61530537 16.28987487 -24.92578125 16.3046875 C-27.50245567 15.29811333 -28.82357814 14.45502863 -30.515625 12.29296875 C-29.99097656 12.19242188 -29.46632812 12.091875 -28.92578125 11.98828125 C-21.60469789 10.2097818 -15.78889529 6.6680475 -9.58227539 2.52197266 C-4.26171464 -0.85707817 -4.26171464 -0.85707817 0 0 Z " fill="#2A3738" transform="translate(67.515625,82.70703125)"/>
<path d="M0 0 C0.33 0 0.66 0 1 0 C1.33 5.94 1.66 11.88 2 18 C-0.000625 19.299375 -2.00125 20.59875 -4.0625 21.9375 C-4.67746338 22.34605225 -5.29242676 22.75460449 -5.92602539 23.17553711 C-10.07611958 25.79661475 -13.22210851 26.61655138 -18 27 C-18 26.01 -18 25.02 -18 24 C-15.58655492 22.28119963 -13.2444852 20.7847036 -10.6875 19.3125 C-9.65206055 18.68891602 -9.65206055 18.68891602 -8.59570312 18.05273438 C-3.4075585 15 -3.4075585 15 0 15 C0 10.05 0 5.1 0 0 Z " fill="#222E30" transform="translate(84,57)"/>
<path d="M0 0 C4.9278855 1.7346157 9.27064575 4.35619901 13.75 7 C14.52988281 7.45117188 15.30976562 7.90234375 16.11328125 8.3671875 C16.85449219 8.80289062 17.59570312 9.23859375 18.359375 9.6875 C19.03452148 10.08324219 19.70966797 10.47898437 20.40527344 10.88671875 C22 12 22 12 23 14 C22.67 14.66 22.34 15.32 22 16 C17.6717633 15.39774072 14.47020162 13.8444251 10.6875 11.6875 C9.61886719 11.09324219 8.55023438 10.49898437 7.44921875 9.88671875 C6.64097656 9.26410156 5.83273438 8.64148437 5 8 C5 6.68 5 5.36 5 4 C4.01 4.33 3.02 4.66 2 5 C1.34 4.67 0.68 4.34 0 4 C0 2.68 0 1.36 0 0 Z " fill="#1D282B" transform="translate(63,12)"/>
<path d="M0 0 C1.65 0 3.3 0 5 0 C2.97810834 7.78121942 0.61369593 15.39772708 -2 23 C-3.32 23 -4.64 23 -6 23 C-4.64741104 15.11583017 -2.45600648 7.60646666 0 0 Z " fill="#1C2A2C" transform="translate(45,38)"/>
<path d="M0 0 C0.99 0 1.98 0 3 0 C4.37868281 1.62935241 5.71274093 3.29749607 7 5 C7.66 5.33 8.32 5.66 9 6 C8.44449305 9.59905908 7.25112752 10.99909799 4.4375 13.25 C3.79683594 13.77078125 3.15617187 14.2915625 2.49609375 14.828125 C2.00238281 15.21484375 1.50867187 15.6015625 1 16 C0.34 14.68 -0.32 13.36 -1 12 C-0.01 11.01 0.98 10.02 2 9 C1.690625 8.4225 1.38125 7.845 1.0625 7.25 C0.06704845 5.14198495 -0.60457454 3.29346769 -1 1 C-0.67 0.67 -0.34 0.34 0 0 Z " fill="#1C2A2D" transform="translate(51,42)"/>
<path d="M0 0 C0.99 0.33 1.98 0.66 3 1 C2.37240135 3.92879371 1.41377341 6.36095629 0 9 C0.99 9.99 1.98 10.98 3 12 C2.34 13.32 1.68 14.64 1 16 C-0.17825358 15.09827532 -1.34231577 14.17798498 -2.5 13.25 C-3.1496875 12.73953125 -3.799375 12.2290625 -4.46875 11.703125 C-6 10 -6 10 -6 6 C-4.6875 4.296875 -4.6875 4.296875 -3 2.75 C-2.1646875 1.96882813 -2.1646875 1.96882813 -1.3125 1.171875 C-0.879375 0.78515625 -0.44625 0.3984375 0 0 Z " fill="#202D2E" transform="translate(35,42)"/>
<path d="M0 0 C3.66881155 0.70554068 6.70450534 2.27735506 10 4 C9.67 5.65 9.34 7.3 9 9 C4.69235185 7.43358249 0.93828536 5.31663844 -3 3 C-2.01 2.67 -1.02 2.34 0 2 C0 1.34 0 0.68 0 0 Z " fill="#263335" transform="translate(6,73)"/>
<path d="M0 0 C0.66 0.66 1.32 1.32 2 2 C2.66 1.67 3.32 1.34 4 1 C5.87939453 0.97827148 5.87939453 0.97827148 8.1328125 1.12109375 C8.93847656 1.16943359 9.74414062 1.21777344 10.57421875 1.26757812 C11.41597656 1.32365234 12.25773437 1.37972656 13.125 1.4375 C14.39923828 1.51581055 14.39923828 1.51581055 15.69921875 1.59570312 C17.79979124 1.72551378 19.89994191 1.8621174 22 2 C22 2.33 22 2.66 22 3 C16.06 3 10.12 3 4 3 C3.34 4.65 2.68 6.3 2 8 C1.34 8.66 0.68 9.32 0 10 C-1.60339848 6.88228073 -2.18974141 5.60988311 -1.125 2.1875 C-0.75375 1.465625 -0.3825 0.74375 0 0 Z " fill="#2B3735" transform="translate(61,54)"/>
<path d="M0 0 C4.97209562 1.76429199 9.43438061 4.3939166 14 7 C12 8 10 9 8 10 C7.01 9.34 6.02 8.68 5 8 C5 6.68 5 5.36 5 4 C4.01 4.33 3.02 4.66 2 5 C1.34 4.67 0.68 4.34 0 4 C0 2.68 0 1.36 0 0 Z " fill="#293335" transform="translate(63,12)"/>
<path d="M0 0 C2.24366996 1.12183498 4.07335866 2.39446555 6 4 C6 4.66 6 5.32 6 6 C4.7625 5.79375 3.525 5.5875 2.25 5.375 C-1.11909835 4.93892876 -3.12841921 4.96596361 -6 7 C-6 5.68 -6 4.36 -6 3 C-4.03533587 1.93224776 -2.03144641 0.93446535 0 0 Z " fill="#1D292C" transform="translate(45,2)"/>
<path d="M0 0 C0.33 1.32 0.66 2.64 1 4 C-2.4352048 6.29013653 -3.985331 6.17842973 -8 6 C-6.98565881 3.46414701 -6.34981128 2.21863205 -4 0.75 C-2 0 -2 0 0 0 Z " fill="#1D2B2D" transform="translate(73,78)"/>
<path d="M0 0 C3.1875 0.875 3.1875 0.875 6 2 C3.31158141 4.25245881 1.35358125 5.88213958 -2 7 C-2.33 5.35 -2.66 3.7 -3 2 C-2.01 1.34 -1.02 0.68 0 0 Z " fill="#303C3D" transform="translate(76,75)"/>
<path d="M0 0 C1.0326802 2.78823655 1.04509293 3.8677274 0.0625 6.75 C-0.288125 7.4925 -0.63875 8.235 -1 9 C-2.32 9 -3.64 9 -5 9 C-4.67 7.02 -4.34 5.04 -4 3 C-2.68 2.67 -1.36 2.34 0 2 C0 1.34 0 0.68 0 0 Z " fill="#1C292B" transform="translate(44,52)"/>
<path d="M0 0 C0.66 0.99 1.32 1.98 2 3 C1.25 4.9375 1.25 4.9375 0 7 C-2.125 7.75 -2.125 7.75 -4 8 C-4.33 6.68 -4.66 5.36 -5 4 C-3.35 2.68 -1.7 1.36 0 0 Z " fill="#1A282B" transform="translate(59,60)"/>
<path d="M0 0 C0.66 1.32 1.32 2.64 2 4 C0.35 5.65 -1.3 7.3 -3 9 C-3.66 7.68 -4.32 6.36 -5 5 C-3.625 3.5 -3.625 3.5 -2 2 C-1.34 2 -0.68 2 0 2 C0 1.34 0 0.68 0 0 Z " fill="#19272A" transform="translate(55,49)"/>
<path d="M0 0 C0.66 0 1.32 0 2 0 C2.28875 0.7425 2.5775 1.485 2.875 2.25 C3.82302644 4.56739797 4.84845911 6.77917115 6 9 C2.2047869 7.50902342 0.38957269 5.24299151 -2 2 C-1.34 1.34 -0.68 0.68 0 0 Z " fill="#18272A" transform="translate(32,47)"/>
<path d="M0 0 C4.31392226 0.4793247 6.16569547 1.7457985 9 5 C8.67 5.66 8.34 6.32 8 7 C6.68 6.67 5.36 6.34 4 6 C4.33 5.01 4.66 4.02 5 3 C2.525 2.01 2.525 2.01 0 1 C0 0.67 0 0.34 0 0 Z " fill="#303A3C" transform="translate(77,21)"/>
<path d="M0 0 C1.32 0 2.64 0 4 0 C4 1.32 4 2.64 4 4 C5.65 4 7.3 4 9 4 C9 4.99 9 5.98 9 7 C4.56909529 5.79157144 2.01887244 4.48331435 -1 1 C-0.67 0.67 -0.34 0.34 0 0 Z " fill="#1B2629" transform="translate(59,12)"/>
<path d="M0 0 C3.37462715 0.54723683 5.08235 1.0549 8 3 C7.67 3.99 7.34 4.98 7 6 C6.01 6.33 5.02 6.66 4 7 C3.34 6.34 2.68 5.68 2 5 C2.99 5 3.98 5 5 5 C5 4.34 5 3.68 5 3 C2.525 2.01 2.525 2.01 0 1 C0 0.67 0 0.34 0 0 Z " fill="#323A3B" transform="translate(46,3)"/>
<path d="M0 0 C-0.33 0.99 -0.66 1.98 -1 3 C-0.34 3 0.32 3 1 3 C1.33 2.01 1.66 1.02 2 0 C2 0.66 2 1.32 2 2 C2.66 2.33 3.32 2.66 4 3 C1.3125 3.75 1.3125 3.75 -2 4 C-4.875 2.0625 -4.875 2.0625 -7 0 C-3.86650268 -1.04449911 -3.01031744 -0.93423645 0 0 Z " fill="#4C5654" transform="translate(44,95)"/>
<path d="M0 0 C-0.33 1.65 -0.66 3.3 -1 5 C-3.91517292 3.92598892 -5.77810176 3.22189824 -8 1 C-5.07175348 0.02391783 -3.04386724 -0.08226668 0 0 Z " fill="#333E3F" transform="translate(16,77)"/>
<path d="M0 0 C0.99 0.99 1.98 1.98 3 3 C2.67 3.66 2.34 4.32 2 5 C-1.0625 5.625 -1.0625 5.625 -4 6 C-3.6875 4.125 -3.6875 4.125 -3 2 C-2.01 1.34 -1.02 0.68 0 0 Z " fill="#1E2B2E" transform="translate(47,92)"/>
<path d="M0 0 C-0.33 1.65 -0.66 3.3 -1 5 C-3.91517292 3.92598892 -5.77810176 3.22189824 -8 1 C-5.07175348 0.02391783 -3.04386724 -0.08226668 0 0 Z " fill="#2D393A" transform="translate(33,87)"/>
<path d="M0 0 C0.99 0 1.98 0 3 0 C3.33 1.98 3.66 3.96 4 6 C2.35 6.33 0.7 6.66 -1 7 C-0.67 4.69 -0.34 2.38 0 0 Z " fill="#2E3A3A" transform="translate(42,47)"/>
<path d="M0 0 C3.45925163 1.2491742 6.14693203 2.67527795 9 5 C2.25 5.125 2.25 5.125 0 4 C0 2.68 0 1.36 0 0 Z " fill="#3A4545" transform="translate(63,12)"/>
<path d="M0 0 C3.3 0 6.6 0 10 0 C9.01 0.66 8.02 1.32 7 2 C7 2.66 7 3.32 7 4 C5.68 4 4.36 4 3 4 C3 3.34 3 2.68 3 2 C2.01 1.34 1.02 0.68 0 0 Z " fill="#0F1F24" transform="translate(39,68)"/>
<path d="M0 0 C2.5 1.1875 2.5 1.1875 5 3 C5.3125 5.6875 5.3125 5.6875 5 8 C2 7 2 7 0.8125 5.125 C0 3 0 3 0 0 Z " fill="#182529" transform="translate(29,61)"/>
<path d="M0 0 C1.65 0 3.3 0 5 0 C4.67 1.65 4.34 3.3 4 5 C2.68 4.34 1.36 3.68 0 3 C0 2.01 0 1.02 0 0 Z " fill="#3A4442" transform="translate(45,38)"/>
<path d="M0 0 C0.99 0.33 1.98 0.66 3 1 C2.34 1 1.68 1 1 1 C1.99 2.65 2.98 4.3 4 6 C3.01 6 2.02 6 1 6 C0.34 5.34 -0.32 4.68 -1 4 C-0.625 1.875 -0.625 1.875 0 0 Z " fill="#3A4446" transform="translate(51,42)"/>
<path d="M0 0 C-0.33 0.66 -0.66 1.32 -1 2 C-2.98 2 -4.96 2 -7 2 C-7 1.34 -7 0.68 -7 0 C-4.3333581 -1.33332095 -2.83319697 -0.67102033 0 0 Z " fill="#192529" transform="translate(55,30)"/>
</svg>
